:SAMPLES-PER-SECOND 30
:FRAME-RANGE 1-744
:FULLY-SPECIFIED
:DEGREES
559
root  -105.929 38.082 49.717 178.195 -21.7155 -179.763
RightUpLeg  4.43024 -0.903753 0.152132
RightLeg  16.8072 8.45822 2.32586
RightFoot  -16.6833 -0.335943 -4.78183
RightToes  -5.28216e-011 1.2921e-014 -6.02303e-014
Spine  -8.53063 -1.35809 3.25406
Spine1  10.6494 -0.731022 -3.51206
HEad  11.7254 -57.3912 -2.35658
LeftShoulder1  0.899184 0.248212 -23.3934
LeftArm  -8.27605 26.1818 -51.7351
LeftForeArm  38.0325 7.56447 -11.5809
LeftHand  -0.022759 6.91979 1.03416
RightShoulder  1.69095 2.34413 23.7923
RightArm  -14.7422 21.8125 61.8623
RightForeArm  59.1884 -2.01468 7.38031
RightHand  -0.0326597 -5.2554 -17.1381
LeftUpLeg  -15.8081 -0.0317137 1.8438
LeftLeg  1.3204 -5.09027 2.00408
LeftFoot  0.957068 1.20306 -11.1943
LeftToes  -9.4837e-011 -7.11147e-011 -1.07582e-011
560
root  -106.445 37.9796 48.986 178.14 -20.9241 -179.827
RightUpLeg  5.64822 0.869866 0.00618108
RightLeg  17.3136 7.5408 2.22447
RightFoot  -17.7345 -0.362061 -4.33457
RightToes  -5.28216e-011 1.2921e-014 -6.02303e-014
Spine  -8.82254 -1.59853 2.54792
Spine1  10.9404 -0.949042 -3.55161
HEad  11.9355 -57.6279 -2.32211
LeftShoulder1  0.935623 0.104807 -23.2049
LeftArm  -7.90011 24.2086 -51.8522
LeftForeArm  38.6219 7.58254 -11.7713
LeftHand  -0.0181012 7.13967 1.26937
RightShoulder  1.70803 2.36021 24.0222
RightArm  -14.4936 19.1003 60.9224
RightForeArm  58.8581 -1.90195 7.97694
RightHand  0.0136207 -5.57348 -17.1073
LeftUpLeg  -16.1124 -0.668582 1.18646
LeftLeg  3.743 -6.47574 2.07474
LeftFoot  5.22631 1.32413 -9.29878
LeftToes  -9.4837e-011 -7.11147e-011 -1.07582e-011
561
root  -106.981 37.9422 48.2613 178.07 -19.8366 179.927
RightUpLeg  6.60384 2.90785 -0.34227
RightLeg  18.3739 6.80876 2.29891
RightFoot  -18.2025 -0.343926 -3.68332
RightToes  -5.28216e-011 1.2921e-014 -6.02303e-014
Spine  -9.02185 -1.69219 1.6162
Spine1  11.2263 -1.06703 -3.45359
HEad  12.2033 -57.5993 -2.34659
LeftShoulder1  0.939536 0.102865 -23.3152
LeftArm  -7.02405 21.5636 -51.6947
LeftForeArm  39.4945 7.61501 -12.094
LeftHand  -0.020129 6.07196 1.83994
RightShoulder  1.67378 2.13076 24.6928
RightArm  -16.0477 16.3331 60.1136
RightForeArm  60.634 -3.73835 7.31758
RightHand  0.0160693 -5.58132 -17.5941
LeftUpLeg  -15.7044 -1.88696 0.467861
LeftLeg  5.66265 -5.06903 2.89495
LeftFoot  7.40874 1.29295 -8.0961
LeftToes  -9.4837e-011 -7.11147e-011 -1.07582e-011
562
root  -107.508 37.9762 47.538 178.22 -18.6501 179.445
RightUpLeg  6.90569 4.60735 -1.03282
RightLeg  20.2537 6.84803 2.58299
RightFoot  -18.0246 -0.259802 -2.36197
RightToes  -5.28216e-011 1.2921e-014 -6.02303e-014
Spine  -9.32997 -1.76078 0.453812
Spine1  11.4027 -1.12049 -3.463
HEad  12.8152 -57.1947 -2.26682
LeftShoulder1  0.929521 0.138982 -23.3344
LeftArm  -5.88712 18.6052 -51.288
LeftForeArm  39.8049 7.66385 -12.452
LeftHand  -0.0174835 6.2153 1.97425
RightShoulder  1.70745 2.10309 25.5132
RightArm  -18.4333 13.5598 58.8813
RightForeArm  62.318 -6.03354 6.20748
RightHand  0.0479891 -5.77409 -18.2781
LeftUpLeg  -15.2831 -1.76996 0.0175866
LeftLeg  7.67805 -4.04201 2.29099
LeftFoot  6.98825 0.958941 -6.20457
LeftToes  -9.4837e-011 -7.11147e-011 -1.07582e-011
563
root  -108.036 38.042 46.8536 178.51 -17.6621 179.007
RightUpLeg  6.32175 5.88732 -1.89505
RightLeg  23.2871 7.42016 3.27722
RightFoot  -17.3379 -0.162527 -0.864136
RightToes  -5.28216e-011 1.2921e-014 -6.02303e-014
Spine  -9.6196 -1.85123 -0.467366
Spine1  11.4073 -1.17403 -3.6806
HEad  13.3758 -56.9088 -2.26599
LeftShoulder1  0.97399 -0.0396037 -23.0842
LeftArm  -5.02839 15.5468 -51.0403
LeftForeArm  39.8556 7.6917 -12.64
LeftHand  -0.0180013 6.13413 2.0327
RightShoulder  1.67828 1.92053 26.0777
RightArm  -22.6936 10.7946 58.0015
RightForeArm  65.8998 -5.57218 4.18589
RightHand  0.0997738 -6.0816 -18.8039
LeftUpLeg  -14.8497 -1.49279 -0.495271
LeftLeg  9.41274 -3.33472 1.70091
LeftFoot  5.27467 0.694115 -4.97188
LeftToes  -9.4837e-011 -7.11147e-011 -1.07582e-011
564
root  -108.546 38.0898 46.2191 178.796 -16.6295 178.741
RightUpLeg  4.64352 6.33352 -3.05996
RightLeg  27.9157 9.03314 4.94086
RightFoot  -16.0236 -0.0862689 0.542096
RightToes  -5.28216e-011 1.2921e-014 -6.02303e-014
Spine  -9.84139 -1.86997 -1.15657
Spine1  11.497 -1.18795 -4.02952
HEad  13.4707 -56.8602 -2.18267
LeftShoulder1  1.06337 -0.403537 -22.6131
LeftArm  -4.38424 12.6187 -51.0081
LeftForeArm  39.4468 7.69648 -12.6165
LeftHand  -0.0189221 5.99716 2.1534
RightShoulder  1.6482 1.84832 25.9348
RightArm  -28.3924 7.68596 57.4939
RightForeArm  70.0102 -4.87105 0.937266
RightHand  0.203843 -6.73342 -18.7386
LeftUpLeg  -14.3631 -0.813986 -1.01379
LeftLeg  10.6906 -2.98161 1.34159
LeftFoot  3.79805 0.488891 -3.85236
LeftToes  -9.4837e-011 -7.11147e-011 -1.07582e-011
565
root  -109.04 38.0891 45.6559 179.208 -15.457 178.356
RightUpLeg  1.80023 5.88342 -4.989
RightLeg  34.0425 11.6363 8.11726
RightFoot  -13.9823 -0.0420266 2.28573
RightToes  -5.28216e-011 1.2921e-014 -6.02303e-014
Spine  -9.72554 -1.9043 -2.09518
Spine1  11.2945 -1.26448 -4.30175
HEad  12.5878 -56.5113 -1.22244
LeftShoulder1  1.15034 -0.765289 -22.1792
LeftArm  -3.43575 9.88385 -50.839
LeftForeArm  38.2768 7.24319 -12.6426
LeftHand  -0.0202247 5.68905 2.91963
RightShoulder  1.59141 1.68896 25.8061
RightArm  -33.7999 4.24827 56.6506
RightForeArm  73.4144 -4.17597 -2.32571
RightHand  0.366186 -7.85942 -17.9391
LeftUpLeg  -14.0588 -0.19092 -1.70131
LeftLeg  11.8388 -2.49537 1.12326
LeftFoot  2.55669 0.28438 -2.46079
LeftToes  -9.4837e-011 -7.11147e-011 -1.07582e-011
566
root  -109.465 38.0242 45.1315 179.609 -14.1895 177.977
RightUpLeg  -1.86353 5.25215 -7.03779
RightLeg  41.1841 13.4965 12.1033
RightFoot  -11.2671 -0.0800089 5.37701
RightToes  -5.28216e-011 1.2921e-014 -6.02303e-014
Spine  -9.45306 -1.99514 -3.49815
Spine1  11.1761 -1.48267 -4.24513
HEad  10.5021 -55.9602 0.645086
LeftShoulder1  1.20565 -1.01309 -21.8186
LeftArm  -2.19737 7.09643 -50.398
LeftForeArm  36.9112 5.33231 -12.9023
LeftHand  -0.0242765 5.47168 3.10069
RightShoulder  1.48524 1.30993 26.1211
RightArm  -37.1413 1.23936 54.8951
RightForeArm  75.2357 -3.74877 -4.34976
RightHand  0.420534 -8.41095 -16.8565
LeftUpLeg  -14.1116 0.744769 -2.17019
LeftLeg  13.5148 -2.11479 0.568508
LeftFoot  0.843438 0.126075 -1.22933
LeftToes  -9.4837e-011 -7.11147e-011 -1.07582e-011
